<?xml version="1.0" standalone="no"?>
<!DOCTYPE svg PUBLIC "-//W3C//DTD SVG 20010904//EN"
 "http://www.w3.org/TR/2001/REC-SVG-20010904/DTD/svg10.dtd">
<svg version="1.0" xmlns="http://www.w3.org/2000/svg"
 width="512.000000pt" height="512.000000pt" viewBox="0 0 512.000000 512.000000"
 preserveAspectRatio="xMidYMid meet">

<g transform="translate(0.000000,512.000000) scale(0.100000,-0.100000)"
fill="#000000" stroke="none">
<path d="M3615 4956 c-16 -8 -296 -281 -622 -607 -642 -644 -615 -613 -598
-706 5 -34 76 -108 608 -640 653 -653 621 -625 715 -608 33 5 107 76 639 608
532 532 603 606 608 640 17 93 44 62 -598 706 -340 341 -606 599 -624 607 -40
17 -89 17 -128 0z m520 -826 l450 -450 -453 -453 -452 -452 -452 452 -453 453
450 450 c247 247 452 450 455 450 3 0 208 -203 455 -450z"/>
<path d="M255 4306 c-41 -18 -83 -69 -90 -109 -3 -18 -5 -406 -3 -864 3 -822
3 -832 24 -859 11 -15 33 -37 48 -48 27 -21 34 -21 886 -21 852 0 859 0 886
21 15 11 37 33 48 48 21 27 21 34 21 886 0 852 0 859 -21 886 -11 15 -33 37
-48 48 -27 21 -36 21 -874 23 -689 2 -853 0 -877 -11z m1505 -946 l0 -640
-640 0 -640 0 0 640 0 640 640 0 640 0 0 -640z"/>
<path d="M255 2066 c-41 -18 -83 -69 -90 -109 -3 -18 -5 -406 -3 -864 3 -822
3 -832 24 -859 11 -15 33 -37 48 -48 27 -21 34 -21 886 -21 852 0 859 0 886
21 15 11 37 33 48 48 21 27 21 34 21 886 0 852 0 859 -21 886 -11 15 -33 37
-48 48 -27 21 -36 21 -874 23 -689 2 -853 0 -877 -11z m1505 -946 l0 -640
-640 0 -640 0 0 640 0 640 640 0 640 0 0 -640z"/>
<path d="M2495 2066 c-41 -18 -83 -69 -90 -109 -3 -18 -5 -406 -3 -864 3 -822
3 -832 24 -859 11 -15 33 -37 48 -48 27 -21 34 -21 886 -21 852 0 859 0 886
21 15 11 37 33 48 48 21 27 21 34 21 886 0 852 0 859 -21 886 -11 15 -33 37
-48 48 -27 21 -36 21 -874 23 -689 2 -853 0 -877 -11z m1505 -946 l0 -640
-640 0 -640 0 0 640 0 640 640 0 640 0 0 -640z"/>
</g>
</svg>
