<?xml version="1.0" standalone="no"?>
<!DOCTYPE svg PUBLIC "-//W3C//DTD SVG 20010904//EN"
 "http://www.w3.org/TR/2001/REC-SVG-20010904/DTD/svg10.dtd">
<svg version="1.0" xmlns="http://www.w3.org/2000/svg"
 width="512.000000pt" height="512.000000pt" viewBox="0 0 512.000000 512.000000"
 preserveAspectRatio="xMidYMid meet">

<g transform="translate(0.000000,512.000000) scale(0.100000,-0.100000)"
fill="#000000" stroke="none">
<path d="M4565 4704 c-43 -22 -843 -822 -866 -866 -22 -44 -24 -96 -5 -141 8
-18 198 -215 437 -453 454 -452 456 -453 540 -439 53 9 115 69 125 119 16 89
21 82 -369 473 l-362 363 352 352 c354 355 383 389 383 456 0 44 -41 112 -80
133 -42 23 -114 24 -155 3z"/>
<path d="M392 4209 c-18 -12 -42 -39 -52 -60 -20 -37 -20 -68 -20 -1355 0
-1309 0 -1316 21 -1353 11 -20 36 -48 56 -61 l37 -25 983 -3 983 -3 0 -319 0
-320 -506 0 c-497 0 -507 0 -541 -21 -39 -25 -73 -84 -73 -130 0 -48 35 -111
77 -139 l37 -25 1165 0 c1152 0 1166 0 1201 20 40 23 80 93 80 140 -1 47 -35
112 -72 135 -32 19 -49 20 -540 20 l-508 0 0 320 0 320 233 0 c242 0 294 6
336 37 48 37 65 70 65 128 0 61 -19 95 -74 133 l-33 22 -1303 0 -1304 0 0
1120 0 1120 1270 0 c865 0 1285 3 1319 11 38 8 58 20 85 49 62 69 58 155 -9
220 l-36 35 -1422 2 -1422 3 -33 -21z"/>
<path d="M3770 2998 c-24 -13 -53 -35 -63 -50 -28 -38 -34 -116 -12 -159 9
-19 174 -192 366 -384 l349 -350 -346 -345 c-190 -190 -354 -362 -365 -382
-26 -51 -24 -102 6 -153 38 -66 124 -94 202 -64 41 15 849 824 873 875 25 51
25 87 0 138 -13 27 -164 185 -437 458 -354 352 -424 418 -458 427 -55 15 -65
14 -115 -11z"/>
</g>
</svg>
